<svg width="136" height="44" viewBox="0 0 136 44" fill="none" xmlns="http://www.w3.org/2000/svg">
<path d="M13.811 4.8335V19.753H8.73406V4.8335H0.272522V0.291505L21.4264 0.291504V4.8335L13.811 4.8335Z" fill="#EC4E20"/>
<path d="M29.6441 6.96572V19.7531H24.5671V6.96572H29.6441Z" fill="#EC4E20"/>
<path d="M29.6441 0.293945V4.44076C29.6441 4.67442 29.4546 4.86383 29.221 4.86383H24.9902C24.7566 4.86383 24.5671 4.67442 24.5671 4.44076V0.293945H29.6441Z" fill="#EC4E20"/>
<path d="M32.785 0.291992H37.8619H39.5592L46.8628 14.4597L47.478 14.4596L54.7816 0.291992H56.4789H61.5558V19.7475H56.4789V7.36586L49.8234 19.5335C49.7492 19.6692 49.6068 19.7535 49.4522 19.7535H44.8886C44.7339 19.7535 44.5916 19.6692 44.5174 19.5335L37.8619 7.36586V19.7475H32.785V0.291992Z" fill="#EC4E20"/>
<path d="M64.6967 0.291504V19.747L84.1233 19.753V15.7428C84.1233 15.5091 83.9338 15.3197 83.7002 15.3197H69.7737V11.8205H82.8806C83.1142 11.8205 83.3036 11.631 83.3036 11.3974V7.81022C83.3036 7.57656 83.1142 7.38714 82.8806 7.38714H69.7737V7.37294V4.72483H83.7002C83.9338 4.72483 84.1233 4.53541 84.1233 4.30175V0.291504H64.6967Z" fill="#EC4E20"/>
<path d="M103.883 4.81251V19.732H98.8065V4.81251H90.768C90.5344 4.81251 90.3449 4.62309 90.3449 4.38943V0.270509L111.499 0.270508V4.38943C111.499 4.62309 111.309 4.81251 111.076 4.81251L103.883 4.81251Z" fill="#EC4E20"/>
<path fill-rule="evenodd" clip-rule="evenodd" d="M117.423 6.40511C116.054 7.4535 115.391 8.74803 115.391 10.0118C115.391 11.2756 116.054 12.5701 117.423 13.6185C118.793 14.6685 120.781 15.3805 123.065 15.3805C125.35 15.3805 127.338 14.6685 128.708 13.6185C130.076 12.5701 130.739 11.2756 130.739 10.0118C130.739 8.74803 130.076 7.4535 128.708 6.40511C127.338 5.35508 125.35 4.64315 123.065 4.64315C120.781 4.64315 118.793 5.35508 117.423 6.40511ZM114.763 2.93415C116.962 1.24981 119.904 0.270508 123.065 0.270508C126.227 0.270508 129.169 1.24981 131.367 2.93415C133.568 4.62012 135.112 7.10308 135.112 10.0118C135.112 12.9205 133.568 15.4035 131.367 17.0895C129.169 18.7738 126.227 19.7531 123.065 19.7531C119.904 19.7531 116.962 18.7738 114.763 17.0895C112.563 15.4035 111.018 12.9205 111.018 10.0118C111.018 7.10308 112.563 4.62012 114.763 2.93415Z" fill="#EC4E20"/>
<path d="M82.853 36.4495C83.0867 36.4495 83.2761 36.26 83.2761 36.0264V32.5126C83.2761 32.279 83.0867 32.0895 82.853 32.0895H69.8508V28.8985H83.7002C83.9338 28.8985 84.1232 28.7091 84.1232 28.4754V24.5386H63.6364C62.8922 24.5386 62.1689 24.7838 61.5781 25.2363L56.276 29.2978C54.6515 30.5422 52.6623 31.2166 50.6159 31.2166H32.3036C23.7819 31.2166 13.4367 29.7826 7.84926 28.8163C7.11672 28.6896 6.46596 28.5709 5.91181 28.4646C2.79732 28.4646 0.272522 31.0635 0.272522 34.2694C0.272522 37.4753 2.79732 40.0741 5.91181 40.0741C6.46596 39.9678 7.11672 39.8492 7.84925 39.7225C13.4367 38.7562 23.7818 37.3222 32.3036 37.3222H50.616C52.6623 37.3222 54.6515 37.9966 56.276 39.2409L61.5781 43.3024C62.1689 43.7549 62.8922 44.0001 63.6363 44.0001H84.1232V40.0633C84.1232 39.8296 83.9338 39.6402 83.7002 39.6402H69.8508V36.4495H82.853Z" fill="#121212"/>
<path d="M5.91181 40.0741C6.46596 39.9678 7.11672 39.8492 7.84925 39.7225C7.24508 39.95 6.59253 40.0741 5.91181 40.0741Z" fill="#121212"/>
<path d="M5.91181 28.4646C6.46596 28.5709 7.11672 28.6896 7.84926 28.8163C7.24508 28.5888 6.59253 28.4646 5.91181 28.4646Z" fill="#121212"/>
<path d="M126.027 29.0806V44.0001H120.95V29.0806H112.911C112.678 29.0806 112.488 28.8912 112.488 28.6575V24.5386L133.642 24.5386V28.6575C133.642 28.8912 133.453 29.0806 133.219 29.0806L126.027 29.0806Z" fill="#121212"/>
<path fill-rule="evenodd" clip-rule="evenodd" d="M104.308 24.5386L114.462 44.0001H108.795C108.637 44.0001 108.493 43.9129 108.42 43.7737L106.762 40.6155H95.9311L94.2731 43.7737C94.2 43.9129 94.0557 44.0001 93.8985 44.0001H88.2311L98.385 24.5386H104.308ZM104.562 36.3847H98.1311L101.346 30.2078L104.562 36.3847Z" fill="#121212"/>
</svg>
