<svg width="20" height="20" viewBox="0 0 20 20" fill="none" xmlns="http://www.w3.org/2000/svg">
<rect width="20" height="20" rx="6" fill="url(#paint0_radial)"/>
<path d="M8.3564 9.99999C8.3564 9.09218 9.09212 8.35606 9.99993 8.35606C10.9077 8.35606 11.6439 9.09218 11.6439 9.99999C11.6439 10.9078 10.9077 11.6439 9.99993 11.6439C9.09212 11.6439 8.3564 10.9078 8.3564 9.99999ZM7.46772 9.99999C7.46772 11.3985 8.60139 12.5322 9.99993 12.5322C11.3985 12.5322 12.5321 11.3985 12.5321 9.99999C12.5321 8.60145 11.3985 7.46778 9.99993 7.46778C8.60139 7.46778 7.46772 8.60145 7.46772 9.99999ZM12.0406 7.36738C12.0406 7.48442 12.0752 7.59884 12.1402 7.69619C12.2052 7.79353 12.2976 7.86941 12.4057 7.91424C12.5138 7.95908 12.6328 7.97084 12.7476 7.94806C12.8624 7.92527 12.9679 7.86895 13.0507 7.78622C13.1334 7.7035 13.1898 7.59808 13.2127 7.48329C13.2356 7.36851 13.2239 7.24952 13.1792 7.14137C13.1344 7.03323 13.0586 6.94077 12.9613 6.87571C12.8641 6.81065 12.7497 6.7759 12.6326 6.77585C12.4757 6.77592 12.3251 6.83826 12.2141 6.94917C12.1031 7.06008 12.0407 7.2105 12.0406 7.36738ZM8.00765 14.014C7.52686 13.9921 7.26553 13.912 7.09187 13.8444C6.86163 13.7547 6.69736 13.648 6.52464 13.4755C6.35193 13.303 6.24501 13.1389 6.15577 12.9087C6.08808 12.7351 6.00799 12.4737 5.98614 11.9929C5.96223 11.4731 5.95745 11.3169 5.95745 10C5.95745 8.68311 5.96262 8.5274 5.98614 8.00716C6.00803 7.52637 6.08871 7.26548 6.15577 7.09138C6.24541 6.86114 6.35216 6.69687 6.52464 6.52415C6.69712 6.35143 6.86124 6.24452 7.09187 6.15528C7.26545 6.08759 7.52686 6.0075 8.00765 5.98564C8.52746 5.96174 8.6836 5.95696 9.99993 5.95696C11.3163 5.95696 11.4726 5.96213 11.9928 5.98564C12.4736 6.00754 12.7345 6.08822 12.9086 6.15528C13.1388 6.24452 13.3031 6.35167 13.4758 6.52415C13.6485 6.69663 13.755 6.86114 13.8447 7.09138C13.9124 7.26496 13.9925 7.52637 14.0143 8.00716C14.0382 8.5274 14.043 8.68311 14.043 10C14.043 11.3169 14.0382 11.4727 14.0143 11.9929C13.9924 12.4737 13.9119 12.735 13.8447 12.9087C13.755 13.1389 13.6483 13.3032 13.4758 13.4755C13.3033 13.6478 13.1388 13.7547 12.9086 13.8444C12.735 13.9121 12.4736 13.9922 11.9928 14.014C11.473 14.0379 11.3168 14.0427 9.99993 14.0427C8.68301 14.0427 8.5273 14.0379 8.00765 14.014ZM7.96682 5.09847C7.44184 5.12238 7.08311 5.20562 6.76983 5.32752C6.44539 5.45341 6.17073 5.6223 5.89627 5.89633C5.6218 6.17035 5.45335 6.44545 5.32746 6.76989C5.20556 7.08337 5.12231 7.4419 5.09841 7.96688C5.07411 8.49268 5.06854 8.66078 5.06854 9.99999C5.06854 11.3392 5.07411 11.5073 5.09841 12.0331C5.12231 12.5581 5.20556 12.9166 5.32746 13.2301C5.45335 13.5543 5.62184 13.8297 5.89627 14.1036C6.17069 14.3776 6.44539 14.5462 6.76983 14.6725C7.0837 14.7944 7.44184 14.8776 7.96682 14.9015C8.4929 14.9254 8.66072 14.9314 9.99993 14.9314C11.3391 14.9314 11.5072 14.9258 12.033 14.9015C12.5581 14.8776 12.9165 14.7944 13.23 14.6725C13.5543 14.5462 13.8291 14.3777 14.1036 14.1036C14.378 13.8296 14.5462 13.5543 14.6724 13.2301C14.7943 12.9166 14.8779 12.5581 14.9014 12.0331C14.9254 11.5069 14.9309 11.3392 14.9309 9.99999C14.9309 8.66078 14.9254 8.49268 14.9014 7.96688C14.8775 7.44186 14.7943 7.08317 14.6724 6.76989C14.5462 6.44564 14.3776 6.17079 14.1036 5.89633C13.8296 5.62187 13.5543 5.45341 13.2304 5.32752C12.9165 5.20562 12.558 5.12198 12.0334 5.09847C11.5076 5.07456 11.3395 5.0686 10.0003 5.0686C8.66112 5.0686 8.4929 5.07417 7.96682 5.09847Z" fill="white"/>
<defs>
<radialGradient id="paint0_radial" cx="0" cy="0" r="1" gradientUnits="userSpaceOnUse" gradientTransform="translate(1.29438 19.5619) scale(25.3926)">
<stop offset="0.09" stop-color="#FA8F21"/>
<stop offset="0.78" stop-color="#D82D7E"/>
</radialGradient>
</defs>
</svg>
