<svg width="20" height="20" viewBox="0 0 20 20" fill="none" xmlns="http://www.w3.org/2000/svg">
<rect width="20" height="20" rx="6" fill="#0088CC"/>
<path fill-rule="evenodd" clip-rule="evenodd" d="M13.6287 6.03734C13.9168 6.13778 14.0252 6.30883 14.0252 6.66322C14.0252 6.91222 12.2992 12.2026 11.9363 13.066C11.5748 13.9262 11.2322 14.1903 10.7808 13.957C10.428 13.7745 10.1924 13.4042 9.69778 12.2543C9.44638 11.6699 9.16027 11.1057 9.06184 11.0004C8.79366 10.7132 8.35607 10.4885 7.41778 10.1565C6.07437 9.68107 5.67289 9.16236 6.19585 8.57777C6.36505 8.38862 6.67722 8.24511 7.72307 7.87564C9.44847 7.26614 13.2782 5.96391 13.3375 5.96228C13.4245 5.95995 13.4938 5.99032 13.6287 6.03734Z" fill="white"/>
<path d="M13.6287 6.03734C13.9168 6.13778 14.0252 6.30883 14.0252 6.66322C14.0252 6.91222 12.2992 12.2026 11.9363 13.066C11.5748 13.9262 11.2322 14.1903 10.7808 13.957C10.428 13.7745 10.1924 13.4042 9.69778 12.2543C9.44638 11.6699 9.16027 11.1057 9.06184 11.0004C8.79366 10.7132 8.35607 10.4885 7.41778 10.1565C6.07437 9.68107 5.67289 9.16236 6.19585 8.57777C6.36505 8.38862 6.67722 8.24511 7.72307 7.87564C9.44847 7.26614 13.2782 5.96391 13.3375 5.96228C13.4245 5.95995 13.4938 5.99032 13.6287 6.03734Z" fill="white"/>
</svg>
