<svg width="20" height="20" viewBox="0 0 20 20" fill="none" xmlns="http://www.w3.org/2000/svg">
<rect width="20" height="20" rx="6" fill="#5181B8"/>
<path fill-rule="evenodd" clip-rule="evenodd" d="M14.4705 7.59412C14.5357 7.37692 14.4705 7.21729 14.1605 7.21729H13.1353C12.8746 7.21729 12.7545 7.35517 12.6893 7.50727C12.6893 7.50727 12.1679 8.77801 11.4293 9.60344C11.1904 9.84239 11.0818 9.91833 10.9515 9.91833C10.8863 9.91833 10.792 9.84239 10.792 9.62519V7.59412C10.792 7.33343 10.7163 7.21729 10.499 7.21729H8.88802C8.72515 7.21729 8.62717 7.33826 8.62717 7.45294C8.62717 7.70008 8.99639 7.75705 9.03447 8.45214V9.9619C9.03447 10.2929 8.97472 10.3529 8.84437 10.3529C8.49683 10.3529 7.65147 9.07642 7.15 7.61587C7.05173 7.33196 6.95317 7.21729 6.69115 7.21729H5.66595C5.37304 7.21729 5.31445 7.35517 5.31445 7.50727C5.31445 7.7788 5.66207 9.12563 6.93281 10.9068C7.78006 12.1232 8.97355 12.7827 10.0597 12.7827C10.7114 12.7827 10.792 12.6362 10.792 12.3839V11.4646C10.792 11.1716 10.8537 11.1132 11.06 11.1132C11.2121 11.1132 11.4728 11.1892 12.0811 11.7757C12.7762 12.4707 12.8907 12.7827 13.2817 12.7827H14.3069C14.5999 12.7827 14.7463 12.6362 14.6618 12.3472C14.5694 12.0591 14.2375 11.6413 13.7971 11.1458C13.5582 10.8633 13.1997 10.5592 13.0912 10.4072C12.9391 10.2117 12.9825 10.1248 13.0912 9.95113C13.0912 9.95113 14.3402 8.19159 14.4705 7.59419V7.59412Z" fill="white"/>
</svg>
